<?xml version="1.0" encoding="UTF-8" standalone="no"?><!DOCTYPE svg PUBLIC "-//W3C//DTD SVG 1.1//EN" "http://www.w3.org/Graphics/SVG/1.1/DTD/svg11.dtd"><svg width="100%" height="100%" viewBox="0 0 144 144" version="1.1" xmlns="http://www.w3.org/2000/svg" xmlns:xlink="http://www.w3.org/1999/xlink" xml:space="preserve" xmlns:serif="http://www.serif.com/" style="fill-rule:evenodd;clip-rule:evenodd;stroke-linejoin:round;stroke-miterlimit:2;"><rect x="0.129" y="0.113" width="144" height="144.002" style="fill:none;"/><path d="M24.256,33.901l-0,75.698c-0,1.943 1.577,3.52 3.52,3.52l88.707,0c1.943,0 3.52,-1.577 3.52,-3.52l0,-63.362c0,-1.943 -1.577,-3.52 -3.52,-3.52l-48.854,-0l0,-8.816c0,-1.541 -1.251,-2.792 -2.792,-2.792l-37.789,-0c-1.541,-0 -2.792,1.251 -2.792,2.792Z" style="fill:url(#_Linear1);"/><rect x="29.574" y="48.315" width="84.24" height="23.979" style="fill:url(#_Linear2);"/><path d="M112.603,46.834l-83.917,7.374l2.099,23.887l83.917,-7.374l-2.099,-23.887Z" style="fill:#fff;"/><path d="M120.003,60.138c0,-1.866 -1.515,-3.381 -3.382,-3.381l-88.984,-0c-1.866,-0 -3.381,1.515 -3.381,3.381l-0,49.599c-0,1.867 1.515,3.382 3.381,3.382l88.984,0c1.867,0 3.382,-1.515 3.382,-3.382l0,-49.599Z" style="fill:url(#_Linear3);"/><defs><linearGradient id="_Linear1" x1="0" y1="0" x2="1" y2="0" gradientUnits="userSpaceOnUse" gradientTransform="matrix(-0.435351,106.936,0.870701,0.00354474,72.1294,31.109)"><stop offset="0" style="stop-color:#eeeeb9;stop-opacity:1"/><stop offset="1" style="stop-color:#e1a92d;stop-opacity:1"/></linearGradient><linearGradient id="_Linear2" x1="0" y1="0" x2="1" y2="0" gradientUnits="userSpaceOnUse" gradientTransform="matrix(-95.7474,82.0101,-23.3442,-27.2546,120.003,31.109)"><stop offset="0" style="stop-color:#ebdfcc;stop-opacity:1"/><stop offset="1" style="stop-color:#b4a7a7;stop-opacity:1"/></linearGradient><linearGradient id="_Linear3" x1="0" y1="0" x2="1" y2="0" gradientUnits="userSpaceOnUse" gradientTransform="matrix(119.874,87.3584,-51.4242,70.5646,24.2557,56.7567)"><stop offset="0" style="stop-color:#e1a92d;stop-opacity:1"/><stop offset="1" style="stop-color:#eeeeb9;stop-opacity:1"/></linearGradient></defs></svg>